<?xml version="1.0" encoding="iso-8859-1"?>
<!-- Uploaded to: SVG Repo, www.svgrepo.com, Generator: SVG Repo Mixer Tools -->
<!DOCTYPE svg PUBLIC "-//W3C//DTD SVG 1.1//EN" "http://www.w3.org/Graphics/SVG/1.1/DTD/svg11.dtd">
<svg fill="#000000" version="1.1" id="Capa_1" xmlns="http://www.w3.org/2000/svg" xmlns:xlink="http://www.w3.org/1999/xlink" 
	 viewBox="0 0 60 60" xml:space="preserve">
<g>
	<path d="M59,58v-5h-8v5h-2V42h-8v16h-2V38h-8v20h-2V30h-8v28h-2v-7h-8v7H9V46H1v12c-0.552,0-1,0.447-1,1s0.448,1,1,1h8h2h8h2h8h2h8
		h2h8h2h8c0.552,0,1-0.447,1-1S59.552,58,59,58z"/>
	<path d="M1,2h58c0.552,0,1-0.447,1-1s-0.448-1-1-1H1C0.448,0,0,0.447,0,1S0.448,2,1,2z"/>
	<path d="M53,12c0-0.553-0.448-1-1-1h-8c-0.552,0-1,0.447-1,1s0.448,1,1,1h8C52.552,13,53,12.553,53,12z"/>
	<path d="M56.29,11.29C56.11,11.479,56,11.729,56,12c0,0.27,0.11,0.52,0.29,0.71C56.48,12.89,56.74,13,57,13
		c0.26,0,0.52-0.11,0.71-0.29C57.89,12.52,58,12.26,58,12c0-0.271-0.11-0.521-0.29-0.71C57.33,10.92,56.66,10.92,56.29,11.29z"/>
	<path d="M57,6h-3c-0.552,0-1,0.447-1,1s0.448,1,1,1h3c0.552,0,1-0.447,1-1S57.552,6,57,6z"/>
	<path d="M44,8h2c0.552,0,1-0.447,1-1s-0.448-1-1-1h-2c-0.552,0-1,0.447-1,1S43.448,8,44,8z"/>
	<path d="M50.71,7.71C50.89,7.52,51,7.26,51,7s-0.11-0.521-0.29-0.71c-0.37-0.37-1.04-0.37-1.42,0C49.11,6.479,49,6.729,49,7
		c0,0.26,0.11,0.52,0.29,0.71C49.48,7.89,49.74,8,50,8C50.27,8,50.52,7.89,50.71,7.71z"/>
	<rect x="1" y="35" width="8" height="9"/>
	<rect x="11" y="40" width="8" height="9"/>
	<rect x="21" y="19" width="8" height="9"/>
	<rect x="31" y="27" width="8" height="9"/>
	<rect x="41" y="23" width="8" height="17"/>
	<rect x="51" y="44" width="8" height="7"/>
</g>
</svg>