<?xml version="1.0" encoding="iso-8859-1"?>
<!-- Uploaded to: SVG Repo, www.svgrepo.com, Generator: SVG Repo Mixer Tools -->
<svg height="800px" width="800px" version="1.1" id="Capa_1" xmlns="http://www.w3.org/2000/svg" xmlns:xlink="http://www.w3.org/1999/xlink" 
	 viewBox="0 0 502.664 502.664" xml:space="preserve">
<g>
	<g>
		<g>
			<polygon style="fill:#010002;" points="313.618,41.243 313.618,461.464 490.239,502.664 490.239,0 			"/>
			<path style="fill:#010002;" d="M12.425,461.464h273.927V41.243H12.425V461.464z M145.883,78.539
				c22.024,0,39.733,17.753,39.733,39.733c0,21.937-17.688,39.733-39.733,39.733c-21.937,0-39.733-17.796-39.733-39.733
				C106.15,96.314,123.946,78.539,145.883,78.539z M91.999,213.831c0-28.689,24.159-51.813,53.884-51.813
				c29.768,0,53.927,23.124,53.927,51.813v88.203h-16.113V439.72H108.07V302.034h-16.07V213.831z"/>
		</g>
	</g>
	<g>
	</g>
	<g>
	</g>
	<g>
	</g>
	<g>
	</g>
	<g>
	</g>
	<g>
	</g>
	<g>
	</g>
	<g>
	</g>
	<g>
	</g>
	<g>
	</g>
	<g>
	</g>
	<g>
	</g>
	<g>
	</g>
	<g>
	</g>
	<g>
	</g>
</g>
</svg>